<?xml version="1.0" encoding="UTF-8"?>
<svg version="1.1" xmlns="http://www.w3.org/2000/svg" width="217" height="215">
<path d="M0 0 C1.83111328 -0.02416992 1.83111328 -0.02416992 3.69921875 -0.04882812 C12.39873712 -0.05343104 20.32658091 1.18928086 28.75 3.3125 C29.636875 3.52487305 30.52375 3.73724609 31.4375 3.95605469 C55.79631495 10.01313501 77.56638379 28.84373007 90.8125 49.4375 C105.86938569 74.67035558 110.67148356 103.07072637 103.94140625 131.79296875 C99.93391946 147.53128361 92.4491067 162.11213525 81.75 174.3125 C81.15960938 175.04597656 80.56921875 175.77945313 79.9609375 176.53515625 C63.39252816 196.52300326 37.29806195 208.66728782 11.75 211.3125 C-17.24021984 213.51384654 -44.94480328 205.13250973 -67.25 186.3125 C-68.2090625 185.57 -68.2090625 185.57 -69.1875 184.8125 C-89.00935426 168.82713366 -100.57423879 143.62351505 -103.93359375 118.8671875 C-106.05333643 95.05279438 -102.78718097 70.48555399 -89.25 50.3125 C-88.73824219 49.39984375 -88.22648437 48.4871875 -87.69921875 47.546875 C-87.22097656 46.80953125 -86.74273437 46.0721875 -86.25 45.3125 C-85.59 45.3125 -84.93 45.3125 -84.25 45.3125 C-84.01023437 44.76851562 -83.77046875 44.22453125 -83.5234375 43.6640625 C-81.93102426 40.72347118 -79.98150847 38.28389417 -77.875 35.6875 C-77.10414062 34.72585937 -76.33328125 33.76421875 -75.5390625 32.7734375 C-73.46177535 30.54017657 -72.05269508 29.40030403 -69.25 28.3125 C-69.25 27.6525 -69.25 26.9925 -69.25 26.3125 C-68.59 26.3125 -67.93 26.3125 -67.25 26.3125 C-67.25 25.6525 -67.25 24.9925 -67.25 24.3125 C-48.66161121 8.18171069 -24.25496126 -0.06322983 0 0 Z M-60.25 56.3125 C-60.34532328 59.38704761 -60.3755138 62.43909158 -60.36352539 65.51391602 C-60.36367142 66.47966553 -60.36381744 67.44541504 -60.3639679 68.44042969 C-60.36326834 71.64911099 -60.35547397 74.85773503 -60.34765625 78.06640625 C-60.34579222 80.28458118 -60.34436825 82.50275652 -60.34336853 84.72093201 C-60.33954216 90.57190071 -60.32971086 96.42284477 -60.31866455 102.27380371 C-60.30845299 108.23917304 -60.30387146 114.20454633 -60.29882812 120.16992188 C-60.28808869 131.88412544 -60.27101085 143.59831067 -60.25 155.3125 C-54.64 155.3125 -49.03 155.3125 -43.25 155.3125 C-42.92 143.7625 -42.59 132.2125 -42.25 120.3125 C-38.08375 120.291875 -33.9175 120.27125 -29.625 120.25 C-18.94898738 120.00753782 -9.80076645 119.23167144 -1.25 112.3125 C-0.92 111.3225 -0.59 110.3325 -0.25 109.3125 C0.41 109.3125 1.07 109.3125 1.75 109.3125 C7.42744036 102.79800112 9.28682104 94.08072247 9.078125 85.59375 C8.16837946 79.26885247 6.29965615 72.63698422 2.75 67.3125 C2.09 67.3125 1.43 67.3125 0.75 67.3125 C0.255 65.8275 0.255 65.8275 -0.25 64.3125 C-0.91 64.3125 -1.57 64.3125 -2.25 64.3125 C-2.25 63.6525 -2.25 62.9925 -2.25 62.3125 C-3.80851755 61.49238688 -5.37201716 60.68173787 -6.9375 59.875 C-7.80761719 59.42253906 -8.67773438 58.97007813 -9.57421875 58.50390625 C-15.18021006 56.00780793 -20.85300273 56.0956308 -26.890625 55.9609375 C-27.81341248 55.93778473 -28.73619995 55.91463196 -29.68695068 55.89077759 C-31.63011536 55.84328952 -33.57333583 55.79803787 -35.51660156 55.75488281 C-38.50347267 55.68742157 -41.48996388 55.60976722 -44.4765625 55.53125 C-46.36456886 55.48636608 -48.25258941 55.4420744 -50.140625 55.3984375 C-51.03847717 55.37453949 -51.93632935 55.35064148 -52.86138916 55.32601929 C-56.87021177 54.82517025 -56.87021177 54.82517025 -60.25 56.3125 Z M50 58.8125 C49.5875 59.3075 49.175 59.8025 48.75 60.3125 C49.41 61.9625 50.07 63.6125 50.75 65.3125 C51.74 65.3125 52.73 65.3125 53.75 65.3125 C53.75 65.9725 53.75 66.6325 53.75 67.3125 C54.61625 67.84875 55.4825 68.385 56.375 68.9375 C60.01252351 71.19586768 62.07411747 74.19856552 64.453125 77.703125 C64.88109375 78.23421875 65.3090625 78.7653125 65.75 79.3125 C66.41 79.3125 67.07 79.3125 67.75 79.3125 C67.87503906 79.88355469 68.00007813 80.45460938 68.12890625 81.04296875 C68.77131788 83.39039741 69.65187576 85.42478699 70.6875 87.625 C74.34676853 95.8217615 76.97362915 105.15684368 73.7890625 113.97265625 C73.44617188 114.74480469 73.10328125 115.51695313 72.75 116.3125 C72.46125 117.405625 72.1725 118.49875 71.875 119.625 C69.13813792 128.59582571 63.88876462 137.84367753 55.46875 142.6015625 C54.9015625 142.83617187 54.334375 143.07078125 53.75 143.3125 C53.75 143.9725 53.75 144.6325 53.75 145.3125 C53.110625 145.56 52.47125 145.8075 51.8125 146.0625 C49.59995673 147.13282523 49.59995673 147.13282523 48.875 149.3125 C48.813125 150.3025 48.813125 150.3025 48.75 151.3125 C50.49957987 153.53052896 50.49957987 153.53052896 52.625 153.32421875 C53.676875 153.16373047 53.676875 153.16373047 54.75 153 C55.801875 152.85111328 55.801875 152.85111328 56.875 152.69921875 C58.82960396 152.37991546 58.82960396 152.37991546 60.75 151.3125 C60.75 150.6525 60.75 149.9925 60.75 149.3125 C61.41 149.3125 62.07 149.3125 62.75 149.3125 C64.16754725 148.06399165 64.16754725 148.06399165 65.75 146.3125 C66.4925 145.631875 67.235 144.95125 68 144.25 C77.75274449 134.43832654 83.94851563 121.55046676 84.02856445 107.66577148 C84.01913818 106.90981689 84.00971191 106.1538623 84 105.375 C83.99250732 104.58230713 83.98501465 103.78961426 83.97729492 102.97290039 C83.81666768 94.25685366 82.47494372 87.89784787 77.96875 80.35546875 C76.75 78.3125 76.75 78.3125 75.78125 76.17578125 C74.75433313 73.9836133 74.75433313 73.9836133 71.75 72.3125 C71.42 71.3225 71.09 70.3325 70.75 69.3125 C70.09 69.3125 69.43 69.3125 68.75 69.3125 C68.42 68.3225 68.09 67.3325 67.75 66.3125 C64.69491974 63.27972801 64.69491974 63.27972801 60.75 62.3125 C60.75 61.6525 60.75 60.9925 60.75 60.3125 C57.24560124 57.78154534 53.81486855 55.54261267 50 58.8125 Z M34.75 70.3125 C33.64363605 72.70318734 33.64363605 72.70318734 32.75 75.3125 C33.08 75.9725 33.41 76.6325 33.75 77.3125 C34.74 77.3125 35.73 77.3125 36.75 77.3125 C36.75 77.9725 36.75 78.6325 36.75 79.3125 C38.18759333 80.51606651 39.62849372 81.71601741 41.08984375 82.890625 C45.67053656 86.81385367 49.23342114 91.28299742 50.01904297 97.41113281 C50.86128481 109.03072995 50.34098329 117.01035981 42.75 126.3125 C42.42 127.3025 42.09 128.2925 41.75 129.3125 C39.76502851 130.47610398 37.77254371 131.30388034 35.625 132.125 C33.07767633 133.73830499 32.6380914 135.50021058 31.75 138.3125 C32.41 138.3125 33.07 138.3125 33.75 138.3125 C33.75 138.9725 33.75 139.6325 33.75 140.3125 C35.99106736 141.12755184 35.99106736 141.12755184 38.75 141.3125 C41.5102484 139.99865992 41.5102484 139.99865992 44.0625 138 C44.94550781 137.36449219 45.82851562 136.72898437 46.73828125 136.07421875 C47.40214844 135.49285156 48.06601563 134.91148437 48.75 134.3125 C48.75 133.6525 48.75 132.9925 48.75 132.3125 C49.41 132.3125 50.07 132.3125 50.75 132.3125 C52.17812215 130.2536239 53.4779824 128.21479066 54.75 126.0625 C55.28367188 125.18271484 55.28367188 125.18271484 55.828125 124.28515625 C56.81997204 122.63824605 57.78579893 120.97574684 58.75 119.3125 C59.15347656 118.68859375 59.55695313 118.0646875 59.97265625 117.421875 C61.24495515 113.96940562 61.17544159 110.44735677 61.1875 106.8125 C61.19136719 106.01602051 61.19523437 105.21954102 61.19921875 104.39892578 C61.0593425 97.17052916 59.24714087 91.6822923 55.75 85.3125 C55.09 85.3125 54.43 85.3125 53.75 85.3125 C53.75 84.3225 53.75 83.3325 53.75 82.3125 C53.09 82.3125 52.43 82.3125 51.75 82.3125 C50.75 80.3125 49.75 78.3125 48.75 76.3125 C47.09928604 75.28638051 45.43029994 74.28941857 43.75 73.3125 C43.09 72.755625 42.43 72.19875 41.75 71.625 C39.26448445 69.99388042 37.66524679 70.06956277 34.75 70.3125 Z M24.75 86.3125 C21.87608179 87.48524994 21.87608179 87.48524994 19.75 89.3125 C20.08 90.6325 20.41 91.9525 20.75 93.3125 C22.73 93.8075 22.73 93.8075 24.75 94.3125 C24.75 94.9725 24.75 95.6325 24.75 96.3125 C25.41 96.3125 26.07 96.3125 26.75 96.3125 C27.76702117 99.3635635 27.91582083 101.55449061 27.9375 104.75 C27.95167969 105.69746094 27.96585938 106.64492187 27.98046875 107.62109375 C27.7432177 110.39170345 27.25274531 111.99247216 25.75 114.3125 C24.43352881 115.01187532 23.09977849 115.67979133 21.75 116.3125 C19.44328085 119.02799154 19.44328085 119.02799154 20.125 121.5 C20.33125 122.098125 20.5375 122.69625 20.75 123.3125 C26.55573897 123.77444456 26.55573897 123.77444456 31.75 121.5 C34.0873846 119.43748166 34.0873846 119.43748166 33.75 116.3125 C34.74 115.9825 35.73 115.6525 36.75 115.3125 C38.2218061 112.36888781 37.88180773 109.71201798 37.875 106.4375 C37.87757813 105.20257813 37.88015625 103.96765625 37.8828125 102.6953125 C37.71655584 98.4606575 37.58613284 96.28349298 34.8125 93.0625 C32.94664456 91.09684085 32.94664456 91.09684085 30.75 91.3125 C30.75 90.6525 30.75 89.9925 30.75 89.3125 C28.05128645 87.5040405 28.05128645 87.5040405 24.75 86.3125 Z " fill="#42CC02" transform="translate(106.25,1.6875)"/>
<path d="M0 0 C0 1.65 0 3.3 0 5 C-2.31 4.67 -4.62 4.34 -7 4 C-8.12516085 5.83284443 -8.12516085 5.83284443 -9 8 C-8.67 8.99 -8.34 9.98 -8 11 C-7.01 11 -6.02 11 -5 11 C-5 11.66 -5 12.32 -5 13 C-4.319375 13.165 -3.63875 13.33 -2.9375 13.5 C1.35109203 15.68991933 4.19509056 19.12000999 7 23 C7 23.66 7 24.32 7 25 C7.66 25 8.32 25 9 25 C14.62180171 35.44366325 18.31394602 44.93558655 17 57 C16.38555385 58.68661737 15.7232123 60.35707998 15 62 C14.71125 63.093125 14.4225 64.18625 14.125 65.3125 C11.29759487 74.5801057 6.15290167 81.47756242 -1 88 C-3.3125 88.81640625 -3.3125 88.81640625 -5 89 C-5 89.66 -5 90.32 -5 91 C-7 92.625 -7 92.625 -9 94 C-8.67 95.65 -8.34 97.3 -8 99 C-9.32 98.67 -10.64 98.34 -12 98 C-12.48828125 95.98177083 -12.9765625 93.96354167 -13.46484375 91.9453125 C-13.94846992 89.9414343 -13.94846992 89.9414343 -15 88 C-15.99 88.495 -15.99 88.495 -17 89 C-21.40085909 89.24910523 -25.2161634 89.44836486 -29 87 C-29.8125 83.875 -29.8125 83.875 -30 81 C-29.34 81 -28.68 81 -28 81 C-27.505 80.01 -27.505 80.01 -27 79 C-26.67 79.99 -26.34 80.98 -26 82 C-26.495 82.99 -26.495 82.99 -27 84 C-26.34 84 -25.68 84 -25 84 C-25 84.66 -25 85.32 -25 86 C-19.09903768 85.63871659 -15.40170489 83.99137646 -11 80 C-10.67 79.34 -10.34 78.68 -10 78 C-9.34 78 -8.68 78 -8 78 C-7.74476563 77.45601563 -7.48953125 76.91203125 -7.2265625 76.3515625 C-6 74 -6 74 -4.2734375 71.3984375 C1.52141992 62.1695905 2.64516482 53.7241358 1 43 C0.18350264 40.29339813 -0.70860843 38.06332927 -2.125 35.62890625 C-3 34 -3 34 -3 31 C-3.66 31 -4.32 31 -5 31 C-5 30.01 -5 29.02 -5 28 C-5.66 28 -6.32 28 -7 28 C-10 24.53846154 -10 24.53846154 -10 22 C-10.61875 21.896875 -11.2375 21.79375 -11.875 21.6875 C-14 21 -14 21 -16 18 C-15.01 18 -14.02 18 -13 18 C-12.34 17.34 -11.68 16.68 -11 16 C-11 16.66 -11 17.32 -11 18 C-10.34 18 -9.68 18 -9 18 C-9 16.68 -9 15.36 -9 14 C-9.76763672 13.27876953 -9.76763672 13.27876953 -10.55078125 12.54296875 C-11.02902344 12.03378906 -11.50726563 11.52460937 -12 11 C-11.85546875 8.73828125 -11.85546875 8.73828125 -11.1875 6.3125 C-10.97480469 5.50425781 -10.76210937 4.69601563 -10.54296875 3.86328125 C-10.36378906 3.24839844 -10.18460938 2.63351563 -10 2 C-8.52112267 1.66538533 -7.04188942 1.33234333 -5.5625 1 C-4.32693359 0.7215625 -4.32693359 0.7215625 -3.06640625 0.4375 C-1 0 -1 0 0 0 Z " fill="#41C706" transform="translate(165,56)"/>
<path d="M0 0 C1.66623639 0.03786901 3.33397597 0.04627845 5 0 C5 0.66 5 1.32 5 2 C6.32 2.33 7.64 2.66 9 3 C9 3.66 9 4.32 9 5 C9.99 5.33 10.98 5.66 12 6 C14.95361445 11.25087013 15.94330878 16.01247165 15 22 C13.90105893 25.1350743 12.55369779 28.06600819 11 31 C10.34 31 9.68 31 9 31 C9 31.66 9 32.32 9 33 C0.20763415 38.30859825 -9.04321873 37.60254331 -19 37 C-20.76072584 35.23927416 -20.12834784 32.9210371 -20.13894653 30.5760498 C-20.1369223 29.81876587 -20.13489807 29.06148193 -20.1328125 28.28125 C-20.13376923 27.50817505 -20.13472595 26.7351001 -20.13571167 25.93859863 C-20.13639341 24.30102456 -20.13453957 22.66344781 -20.13037109 21.02587891 C-20.12502271 18.51068079 -20.13031626 15.99566127 -20.13671875 13.48046875 C-20.13605797 11.89322877 -20.1347768 10.3059889 -20.1328125 8.71875 C-20.13483673 7.96146606 -20.13686096 7.20418213 -20.13894653 6.4239502 C-20.11495132 1.11495132 -20.11495132 1.11495132 -19 0 C-16.55571462 -0.26536271 -14.13903274 -0.46905592 -11.6875 -0.625 C-11.01009766 -0.6765625 -10.33269531 -0.728125 -9.63476562 -0.78125 C-6.20019217 -1.00955009 -3.29083904 -1.02601217 0 0 Z " fill="#43CC04" transform="translate(83,71)"/>
<path d="M0 0 C3.3 0 6.6 0 10 0 C10.33 1.32 10.66 2.64 11 4 C8.36 3.67 5.72 3.34 3 3 C2.67 4.98 2.34 6.96 2 9 C2.99 9 3.98 9 5 9 C5 9.66 5 10.32 5 11 C5.57492188 11.24105469 6.14984375 11.48210937 6.7421875 11.73046875 C9.43614801 13.24523893 11.08037543 14.99966422 13.125 17.3125 C13.80820313 18.07175781 14.49140625 18.83101562 15.1953125 19.61328125 C20.63073372 26.80168463 19.91785214 35.97944145 19.34179688 44.61865234 C18.55604694 50.09308439 15.63258987 54.00565844 12 58 C11.50242188 58.55945313 11.00484375 59.11890625 10.4921875 59.6953125 C9.1875 61.0625 9.1875 61.0625 7 63 C6.01 63.99 6.01 63.99 5 65 C4.01 65 3.02 65 2 65 C1.67 65.66 1.34 66.32 1 67 C1.62784934 64.07003641 2.28797092 61.48244217 4 59 C6.625 58.25 6.625 58.25 9 58 C8.505 55.525 8.505 55.525 8 53 C7.195625 53.185625 6.39125 53.37125 5.5625 53.5625 C4.716875 53.706875 3.87125 53.85125 3 54 C2 53 2 53 1.75 50.625 C2 48 2 48 3.49731445 46.6003418 C5.42600155 44.54631354 5.35202597 43.54522049 5.29296875 40.76953125 C5.28330078 39.96708984 5.27363281 39.16464844 5.26367188 38.33789062 C5.23853516 37.50451172 5.21339844 36.67113281 5.1875 35.8125 C5.17396484 34.96751953 5.16042969 34.12253906 5.14648438 33.25195312 C5.11115799 31.16769616 5.05735139 29.08376723 5 27 C4.01 26.67 3.02 26.34 2 26 C0.3125 24.5625 0.3125 24.5625 -1 23 C-1 22.34 -1 21.68 -1 21 C-5.12148343 19.17339803 -5.12148343 19.17339803 -9.375 19.875 C-9.91125 20.24625 -10.4475 20.6175 -11 21 C-11 22.32 -11 23.64 -11 25 C-9.68 25.33 -8.36 25.66 -7 26 C-7 26.66 -7 27.32 -7 28 C-6.34 28 -5.68 28 -5 28 C-5.33 28.99 -5.66 29.98 -6 31 C-7.32 31 -8.64 31 -10 31 C-10.45375 29.865625 -10.9075 28.73125 -11.375 27.5625 C-12.57095806 23.95278308 -12.57095806 23.95278308 -15 23 C-14.625 20.5625 -14.625 20.5625 -14 18 C-11.11584117 16.55792059 -8.58278472 16.90605113 -5.375 16.9375 C-4.18648437 16.94652344 -2.99796875 16.95554687 -1.7734375 16.96484375 C-0.85820312 16.97644531 0.05703125 16.98804687 1 17 C1.33 17.66 1.66 18.32 2 19 C2.66 18.67 3.32 18.34 4 18 C3.525625 17.649375 3.05125 17.29875 2.5625 16.9375 C-1.05691048 12.44943101 -0.09676669 5.51570154 0 0 Z " fill="#42C506" transform="translate(138,70)"/>
<path d="M0 0 C3.3 0 6.6 0 10 0 C10.33 1.32 10.66 2.64 11 4 C8.36 3.67 5.72 3.34 3 3 C2.67 4.98 2.34 6.96 2 9 C2.99 9 3.98 9 5 9 C5 9.66 5 10.32 5 11 C5.57234375 11.23460938 6.1446875 11.46921875 6.734375 11.7109375 C9.51684301 13.29406585 11.17070214 15.1991525 13.25 17.625 C13.95640625 18.44226563 14.6628125 19.25953125 15.390625 20.1015625 C15.92171875 20.72804688 16.4528125 21.35453125 17 22 C16.67 22.66 16.34 23.32 16 24 C14.02 23.01 12.04 22.02 10 21 C9.67 22.98 9.34 24.96 9 27 C8.34 27 7.68 27 7 27 C6.34 27.99 5.68 28.98 5 30 C5 29.01 5 28.02 5 27 C4.01 26.67 3.02 26.34 2 26 C0.3125 24.5625 0.3125 24.5625 -1 23 C-1 22.34 -1 21.68 -1 21 C-5.12148343 19.17339803 -5.12148343 19.17339803 -9.375 19.875 C-9.91125 20.24625 -10.4475 20.6175 -11 21 C-11 22.32 -11 23.64 -11 25 C-9.68 25.33 -8.36 25.66 -7 26 C-7 26.66 -7 27.32 -7 28 C-6.34 28 -5.68 28 -5 28 C-5.33 28.99 -5.66 29.98 -6 31 C-7.32 31 -8.64 31 -10 31 C-10.45375 29.865625 -10.9075 28.73125 -11.375 27.5625 C-12.57095806 23.95278308 -12.57095806 23.95278308 -15 23 C-14.625 20.5625 -14.625 20.5625 -14 18 C-11.11584117 16.55792059 -8.58278472 16.90605113 -5.375 16.9375 C-4.18648437 16.94652344 -2.99796875 16.95554687 -1.7734375 16.96484375 C-0.85820312 16.97644531 0.05703125 16.98804687 1 17 C1.33 17.66 1.66 18.32 2 19 C2.66 18.67 3.32 18.34 4 18 C3.525625 17.649375 3.05125 17.29875 2.5625 16.9375 C-1.05691048 12.44943101 -0.09676669 5.51570154 0 0 Z " fill="#44BF0B" transform="translate(138,70)"/>
<path d="M0 0 C2 2 2 2 2.20254517 5.96096802 C2.19053431 7.71512915 2.16716388 9.46923254 2.13525391 11.22314453 C2.12579239 12.1792865 2.11633087 13.13542847 2.10658264 14.12054443 C2.07281471 17.29149125 2.02472409 20.46205428 1.9765625 23.6328125 C1.95040469 25.82712796 1.92513694 28.0214542 1.90072632 30.21578979 C1.83398414 35.99946701 1.75511108 41.78291842 1.67376709 47.56640625 C1.59293591 53.46475538 1.52350052 59.36323724 1.453125 65.26171875 C1.31327812 76.84130496 1.1606239 88.42068467 1 100 C0.34 100 -0.32 100 -1 100 C-2.03355438 81.75163996 -2.18785199 63.53127581 -2.18530273 45.26000977 C-2.18519953 41.19755675 -2.19906097 37.13527235 -2.21607494 33.07285976 C-2.22718865 29.90809843 -2.22922245 26.74337878 -2.22869301 23.57859993 C-2.22986597 22.07915711 -2.23424894 20.57971296 -2.24202538 19.08028984 C-2.25185102 16.99798222 -2.24894177 14.91605429 -2.24291992 12.83374023 C-2.24434494 11.65512924 -2.24576996 10.47651825 -2.24723816 9.26219177 C-1.99089041 5.87980318 -1.20858266 3.15749032 0 0 Z " fill="#47B210" transform="translate(45,56)"/>
<path d="M0 0 C2.91517292 1.07401108 4.77810176 1.77810176 7 4 C7.2812756 6.69096657 7.46581869 9.30235561 7.5625 12 C7.56801973 17.15744797 7.56801973 17.15744797 9 22 C9.66 22.33 10.32 22.66 11 23 C10.525625 23.433125 10.05125 23.86625 9.5625 24.3125 C7.76313043 26.02309613 7.76313043 26.02309613 7 29 C7.3954491 30.93111693 7.3954491 30.93111693 8.0625 33 C9.45796375 38.60957946 8.34358254 43.47064109 7 49 C5.515 49.495 5.515 49.495 4 50 C3.67 47.36 3.34 44.72 3 42 C1.68 42 0.36 42 -1 42 C-1 42.66 -1 43.32 -1 44 C-3.475 44.495 -3.475 44.495 -6 45 C-5.34 43.68 -4.68 42.36 -4 41 C-3.34 41 -2.68 41 -2 41 C-1.71125 40.236875 -1.4225 39.47375 -1.125 38.6875 C0 36 0 36 2 33 C4.97853154 22.64868361 4.25026923 14.86018083 0.875 4.7578125 C0 2 0 2 0 0 Z " fill="#4AC00F" transform="translate(110,70)"/>
<path d="M0 0 C0.66 0.33 1.32 0.66 2 1 C1.38125 1.9075 0.7625 2.815 0.125 3.75 C-2.11846968 7.04498848 -2.11846968 7.04498848 -4 11 C-1.03 11.99 1.94 12.98 5 14 C3.71034824 15.37562854 2.37310707 16.70766393 1 18 C0.34 18 -0.32 18 -1 18 C-1 18.66 -1 19.32 -1 20 C-3 21.625 -3 21.625 -5 23 C-4.67 24.65 -4.34 26.3 -4 28 C-5.32 27.67 -6.64 27.34 -8 27 C-8.48828125 24.98177083 -8.9765625 22.96354167 -9.46484375 20.9453125 C-9.94846992 18.9414343 -9.94846992 18.9414343 -11 17 C-11.66 17.33 -12.32 17.66 -13 18 C-17.40085909 18.24910523 -21.2161634 18.44836486 -25 16 C-25.8125 12.875 -25.8125 12.875 -26 10 C-25.34 10 -24.68 10 -24 10 C-23.67 9.34 -23.34 8.68 -23 8 C-22.67 8.99 -22.34 9.98 -22 11 C-22.33 11.66 -22.66 12.32 -23 13 C-22.34 13 -21.68 13 -21 13 C-21 13.66 -21 14.32 -21 15 C-15.09903768 14.63871659 -11.40170489 12.99137646 -7 9 C-6.67 8.34 -6.34 7.68 -6 7 C-5.34 7 -4.68 7 -4 7 C-3.71125 6.401875 -3.4225 5.80375 -3.125 5.1875 C-2 3 -2 3 0 0 Z " fill="#43C508" transform="translate(161,127)"/>
<path d="M0 0 C1.66623639 0.03786901 3.33397597 0.04627845 5 0 C5 0.66 5 1.32 5 2 C6.32 2.33 7.64 2.66 9 3 C9 3.66 9 4.32 9 5 C9.99 5.33 10.98 5.66 12 6 C15.04598127 11.41507781 15.37559975 15.86520402 15 22 C14.34 22 13.68 22 13 22 C12.01 15.565 12.01 15.565 11 9 C10.34 9 9.68 9 9 9 C8.34 7.35 7.68 5.7 7 4 C5.95199219 4.01740234 5.95199219 4.01740234 4.8828125 4.03515625 C3.97273438 4.04417969 3.06265625 4.05320312 2.125 4.0625 C0.76761719 4.07990234 0.76761719 4.07990234 -0.6171875 4.09765625 C-3 4 -3 4 -5 3 C-9.29 2.67 -13.58 2.34 -18 2 C-18.33 12.89 -18.66 23.78 -19 35 C-11.08 34.67 -3.16 34.34 5 34 C2.06408151 36.93591849 -0.44325425 37.12702535 -4.4140625 37.1328125 C-5.67863281 37.13474609 -5.67863281 37.13474609 -6.96875 37.13671875 C-7.8453125 37.13285156 -8.721875 37.12898438 -9.625 37.125 C-10.50929688 37.12886719 -11.39359375 37.13273437 -12.3046875 37.13671875 C-13.14515625 37.13542969 -13.985625 37.13414063 -14.8515625 37.1328125 C-15.62322754 37.13168457 -16.39489258 37.13055664 -17.18994141 37.12939453 C-19 37 -19 37 -20 36 C-20.10091475 33.41810554 -20.13971499 30.863535 -20.1328125 28.28125 C-20.13376923 27.50817505 -20.13472595 26.7351001 -20.13571167 25.93859863 C-20.13639341 24.30102456 -20.13453957 22.66344781 -20.13037109 21.02587891 C-20.12502271 18.51068079 -20.13031626 15.99566127 -20.13671875 13.48046875 C-20.13605797 11.89322877 -20.1347768 10.3059889 -20.1328125 8.71875 C-20.13483673 7.96146606 -20.13686096 7.20418213 -20.13894653 6.4239502 C-20.11495132 1.11495132 -20.11495132 1.11495132 -19 0 C-16.55571462 -0.26536271 -14.13903274 -0.46905592 -11.6875 -0.625 C-11.01009766 -0.6765625 -10.33269531 -0.728125 -9.63476562 -0.78125 C-6.20019217 -1.00955009 -3.29083904 -1.02601217 0 0 Z " fill="#3EA708" transform="translate(83,71)"/>
<path d="M0 0 C0.33 0 0.66 0 1 0 C1.495 8.91 1.495 8.91 2 18 C1.34 18 0.68 18 0 18 C0.185625 18.61875 0.37125 19.2375 0.5625 19.875 C1 22 1 22 0 24 C-0.66 24 -1.32 24 -2 24 C-1.67 24.99 -1.34 25.98 -1 27 C-0.34 26.34 0.32 25.68 1 25 C1 28.15081975 0.72101535 29.41847698 -1 32 C-2.32594105 32.36162029 -3.65938457 32.69728039 -5 33 C-5.33 33.99 -5.66 34.98 -6 36 C-6.639375 36.28875 -7.27875 36.5775 -7.9375 36.875 C-10.24854545 37.85133586 -10.24854545 37.85133586 -11 40.5 C-12 43 -12 43 -14.125 44.3125 C-14.74375 44.539375 -15.3625 44.76625 -16 45 C-16 45.66 -16 46.32 -16 47 C-17.175625 47.0928125 -17.175625 47.0928125 -18.375 47.1875 C-19.24125 47.455625 -20.1075 47.72375 -21 48 C-21.4640625 49.175625 -21.4640625 49.175625 -21.9375 50.375 C-23 53 -23 53 -25.875 54.8125 C-29 56 -29 56 -33 56 C-33 55.01 -33 54.02 -33 53 C-30.03 52.34 -27.06 51.68 -24 51 C-24 50.34 -24 49.68 -24 49 C-23.34 49 -22.68 49 -22 49 C-21.67 48.01 -21.34 47.02 -21 46 C-20.360625 45.855625 -19.72125 45.71125 -19.0625 45.5625 C-18.381875 45.376875 -17.70125 45.19125 -17 45 C-16.30374486 43.68187595 -15.64342156 42.34470477 -15 41 C-13.87652818 39.35946043 -12.72886044 37.73532989 -11.5625 36.125 C-8.99828876 32.51373583 -6.80650445 29.03806877 -5 25 C-4.34 25 -3.68 25 -3 25 C-0.78227509 16.72049367 -0.39728885 8.52080037 0 0 Z " fill="#3CC407" transform="translate(191,102)"/>
<path d="M0 0 C1.12591553 0.00523682 2.25183105 0.01047363 3.41186523 0.01586914 C4.62680664 0.0190918 5.84174805 0.02231445 7.09350586 0.02563477 C8.37290039 0.03401367 9.65229492 0.04239258 10.97045898 0.05102539 C12.2537207 0.05553711 13.53698242 0.06004883 14.85913086 0.06469727 C18.04211921 0.07652994 21.22501661 0.09301471 24.40795898 0.11352539 C24.40795898 0.44352539 24.40795898 0.77352539 24.40795898 1.11352539 C18.52455091 1.9703979 12.84740325 2.2384006 6.90795898 2.17602539 C4.10295898 2.15540039 1.29795898 2.13477539 -1.59204102 2.11352539 C-1.59204102 13.66352539 -1.59204102 25.21352539 -1.59204102 37.11352539 C-7.86204102 37.11352539 -14.13204102 37.11352539 -20.59204102 37.11352539 C-20.59204102 36.78352539 -20.59204102 36.45352539 -20.59204102 36.11352539 C-14.98204102 36.11352539 -9.37204102 36.11352539 -3.59204102 36.11352539 C-3.60364258 33.59856445 -3.61524414 31.08360352 -3.62719727 28.49243164 C-3.63498774 26.06657029 -3.64106455 23.64071032 -3.64697266 21.21484375 C-3.65201291 19.52408224 -3.65884506 17.8333251 -3.66748047 16.14257812 C-3.67955958 13.71751832 -3.68527225 11.29251595 -3.68969727 8.86743164 C-3.69485855 8.10701065 -3.70001984 7.34658966 -3.70533752 6.56312561 C-3.70553339 4.74619969 -3.65401378 2.92939412 -3.59204102 1.11352539 C-2.59204102 0.11352539 -2.59204102 0.11352539 0 0 Z " fill="#47A11A" transform="translate(66.592041015625,120.886474609375)"/>
<path d="M0 0 C8.73836591 15.89795143 4.61224506 40.36375634 0 57 C-1.87914179 63.14569403 -3.90790631 68.97087616 -8 74 C-8.495 71.525 -8.495 71.525 -9 69 C-8.01 69 -7.02 69 -6 69 C-5.67 66.03 -5.34 63.06 -5 60 C-3.515 59.505 -3.515 59.505 -2 59 C-1.87625 58.05125 -1.7525 57.1025 -1.625 56.125 C-1.33614477 54.02878825 -0.99857937 51.99403616 -0.50805664 49.93481445 C1.29783208 42.31516633 1.26176562 34.86039043 1.1875 27.0625 C1.18685547 25.74958984 1.18621094 24.43667969 1.18554688 23.08398438 C1.30625763 16.43628973 1.30625763 16.43628973 0 10 C-0.06802967 8.27204648 -0.08495645 6.54164635 -0.0625 4.8125 C-0.05347656 3.91144531 -0.04445312 3.01039062 -0.03515625 2.08203125 C-0.02355469 1.39496094 -0.01195312 0.70789063 0 0 Z " fill="#4AB217" transform="translate(209,81)"/>
<path d="M0 0 C5.94070379 5.19187558 7.58672068 12.68576706 8.3203125 20.34375 C8.40944714 25.48809183 8.06812746 29.26054123 6 34 C5.71125 35.093125 5.4225 36.18625 5.125 37.3125 C3.09444205 43.96821772 0.96055413 49.02629724 -5 53 C-3.125 48.25 -3.125 48.25 -2 46 C-2.66 45.67 -3.32 45.34 -4 45 C-2.515 44.505 -2.515 44.505 -1 44 C0.22520264 40.99152582 0.22520264 40.99152582 1 38 C1.66 38 2.32 38 3 38 C3 35.03 3 32.06 3 29 C3.66 29 4.32 29 5 29 C5.39611126 20.74768216 5.63452327 13.65013968 1.97265625 6.05078125 C1.01956002 4.04124101 0.46508903 2.16878358 0 0 Z " fill="#40AB0C" transform="translate(174,84)"/>
<path d="M0 0 C0 0.66 0 1.32 0 2 C-0.71027344 2.18175781 -1.42054687 2.36351563 -2.15234375 2.55078125 C-3.07144531 2.80214844 -3.99054688 3.05351563 -4.9375 3.3125 C-5.85402344 3.55613281 -6.77054688 3.79976563 -7.71484375 4.05078125 C-8.46894531 4.36402344 -9.22304687 4.67726563 -10 5 C-10.33 5.99 -10.66 6.98 -11 8 C-17.625 9 -17.625 9 -21 9 C-22.2375 9.185625 -23.475 9.37125 -24.75 9.5625 C-27.74885957 9.9704331 -29.66011275 9.90098309 -32.75 9.4375 C-36.09923301 8.98664171 -37.26344609 9.13914334 -40 11 C-40 9.68 -40 8.36 -40 7 C-31.42 6.67 -22.84 6.34 -14 6 C-14 5.34 -14 4.68 -14 4 C-12.42466914 3.13116294 -10.83935491 2.28040932 -9.25 1.4375 C-8.36828125 0.96183594 -7.4865625 0.48617187 -6.578125 -0.00390625 C-3.79298812 -1.07998186 -2.73019786 -1.06528748 0 0 Z " fill="#48C608" transform="translate(105,116)"/>
<path d="M0 0 C2 2 2 2 2 6 C2.99 6.33 3.98 6.66 5 7 C4.88490339 8.41750563 4.75746342 9.83401169 4.625 11.25 C4.55539063 12.03890625 4.48578125 12.8278125 4.4140625 13.640625 C3.98166595 16.10446947 3.22196397 17.83124716 2 20 C0.05595338 23.5235845 -0.92495968 27.12985485 -2 31 C-2.33 31.66 -2.66 32.32 -3 33 C-3.66 32.67 -4.32 32.34 -5 32 C-4.79068848 31.40646729 -4.58137695 30.81293457 -4.36572266 30.20141602 C-2.22323168 23.69611484 -1.50982496 17.7606061 -1.375 10.9375 C-1.32425909 9.07150309 -1.26978581 7.20560257 -1.2109375 5.33984375 C-1.19337402 4.52894287 -1.17581055 3.71804199 -1.15771484 2.88256836 C-1 1 -1 1 0 0 Z " fill="#38CD12" transform="translate(191,94)"/>
<path d="M0 0 C3.89662664 6.45330656 2.48959558 15.84994121 1 23 C-0.0625 25.4375 -0.0625 25.4375 -1 27 C-1.66 26.67 -2.32 26.34 -3 26 C-2.8453125 25.36320312 -2.690625 24.72640625 -2.53125 24.0703125 C-1.69154062 19.21728624 -1.60548588 14.33243023 -1.39453125 9.41796875 C-1.35714844 8.63808594 -1.31976563 7.85820313 -1.28125 7.0546875 C-1.25095703 6.34812012 -1.22066406 5.64155273 -1.18945312 4.91357422 C-1 3 -1 3 0 0 Z " fill="#4DB80D" transform="translate(168,96)"/>
<path d="M0 0 C0.33 0.66 0.66 1.32 1 2 C-0.051875 2.515625 -1.10375 3.03125 -2.1875 3.5625 C-6.42290105 5.93741111 -8.31991853 9.01816468 -11 13 C-11.66 13 -12.32 13 -13 13 C-13 13.66 -13 14.32 -13 15 C-15.31 15.33 -17.62 15.66 -20 16 C-19.67 15.01 -19.34 14.02 -19 13 C-18.34 13 -17.68 13 -17 13 C-17 12.34 -17 11.68 -17 11 C-11.77076745 6.72823256 -5.92267387 3.2188445 0 0 Z " fill="#3FC40C" transform="translate(56,15)"/>
<path d="M0 0 C3.96 0 7.92 0 12 0 C0.72552991 5.63723504 -12.71488154 4.22443302 -25 4 C-25 3.67 -25 3.34 -25 3 C-21.64908229 2.24636948 -18.56890188 1.88020063 -15.13671875 1.90234375 C-13.80737305 1.90717773 -13.80737305 1.90717773 -12.45117188 1.91210938 C-11.0831543 1.92467773 -11.0831543 1.92467773 -9.6875 1.9375 C-8.75615234 1.94201172 -7.82480469 1.94652344 -6.86523438 1.95117188 C-4.57675627 1.96290766 -2.28841192 1.97932637 0 2 C0 1.34 0 0.68 0 0 Z " fill="#46A91C" transform="translate(122,209)"/>
<path d="M0 0 C2.475 0.495 2.475 0.495 5 1 C1.10929403 4.39036566 -2.78354993 6.52770645 -7.4375 8.625 C-8.40139648 9.07359375 -8.40139648 9.07359375 -9.38476562 9.53125 C-19.60357129 14.22048874 -19.60357129 14.22048874 -23.375 13.625 C-23.91125 13.41875 -24.4475 13.2125 -25 13 C-24 12 -24 12 -21.4375 11.9375 C-20.633125 11.958125 -19.82875 11.97875 -19 12 C-18.67 11.01 -18.34 10.02 -18 9 C-16.07421875 8.3046875 -16.07421875 8.3046875 -13.6875 7.875 C-12.51767578 7.65457031 -12.51767578 7.65457031 -11.32421875 7.4296875 C-10.17373047 7.21699219 -10.17373047 7.21699219 -9 7 C-7.66416205 6.6768501 -6.32986274 6.34692071 -5 6 C-4.67 4.68 -4.34 3.36 -4 2 C-1.525 2.495 -1.525 2.495 1 3 C0.67 2.01 0.34 1.02 0 0 Z " fill="#4EB11D" transform="translate(159,195)"/>
<path d="M0 0 C0.66 0 1.32 0 2 0 C-0.1967803 6.59034089 -4.1716234 12.16554171 -10 16 C-10.99 16 -11.98 16 -13 16 C-13.33 16.66 -13.66 17.32 -14 18 C-13.36646004 15.0434802 -12.79881185 12.45292525 -11 10 C-7.375 8.75 -7.375 8.75 -4 8 C-4 7.01 -4 6.02 -4 5 C-3.34 5 -2.68 5 -2 5 C-1.855625 4.360625 -1.71125 3.72125 -1.5625 3.0625 C-1 1 -1 1 0 0 Z " fill="#49AC11" transform="translate(153,119)"/>
<path d="M0 0 C0.99 0 1.98 0 3 0 C3 0.66 3 1.32 3 2 C3.57234375 2.23460938 4.1446875 2.46921875 4.734375 2.7109375 C7.51684301 4.29406585 9.17070214 6.1991525 11.25 8.625 C11.95640625 9.44226563 12.6628125 10.25953125 13.390625 11.1015625 C13.92171875 11.72804688 14.4528125 12.35453125 15 13 C14.67 13.66 14.34 14.32 14 15 C13.05125 14.484375 12.1025 13.96875 11.125 13.4375 C9.578125 12.7259375 9.578125 12.7259375 8 12 C7.01 12.495 7.01 12.495 6 13 C6 10.36 6 7.72 6 5 C4.35 4.67 2.7 4.34 1 4 C0.67 2.68 0.34 1.36 0 0 Z " fill="#48BA10" transform="translate(140,79)"/>
<path d="M0 0 C0 2 0 4 0 6 C3.3 6 6.6 6 10 6 C10.33 5.01 10.66 4.02 11 3 C11.33 3 11.66 3 12 3 C12 5.64 12 8.28 12 11 C11.67 10.01 11.34 9.02 11 8 C9.68 8 8.36 8 7 8 C6.67 8.66 6.34 9.32 6 10 C5.34 9.67 4.68 9.34 4 9 C1.67085177 8.63858045 -0.66253478 8.30300475 -3 8 C-3 5.69 -3 3.38 -3 1 C-2.01 0.67 -1.02 0.34 0 0 Z " fill="#44AB0F" transform="translate(127,118)"/>
<path d="M0 0 C0 3 0 3 -1 6 C-1.78375 6.061875 -2.5675 6.12375 -3.375 6.1875 C-4.24125 6.455625 -5.1075 6.72375 -6 7 C-6.309375 7.78375 -6.61875 8.5675 -6.9375 9.375 C-8 12 -8 12 -10.875 13.8125 C-14 15 -14 15 -18 15 C-18 14.01 -18 13.02 -18 12 C-15.03 11.34 -12.06 10.68 -9 10 C-9 9.34 -9 8.68 -9 8 C-8.34 8 -7.68 8 -7 8 C-6.67 7.01 -6.34 6.02 -6 5 C-5.360625 4.855625 -4.72125 4.71125 -4.0625 4.5625 C-1.79688294 4.19895007 -1.79688294 4.19895007 -0.75 1.9375 C-0.5025 1.298125 -0.255 0.65875 0 0 Z " fill="#51AB17" transform="translate(176,143)"/>
<path d="M0 0 C-0.66 1.65 -1.32 3.3 -2 5 C1.3 5.66 4.6 6.32 8 7 C8 7.66 8 8.32 8 9 C0.73763698 7.69039355 -5.3830748 5.24043814 -12 2 C-11.401875 1.855625 -10.80375 1.71125 -10.1875 1.5625 C-3.7201087 -0.10054348 -3.7201087 -0.10054348 0 0 Z " fill="#48BA12" transform="translate(72,200)"/>
<path d="M0 0 C0.66 0.33 1.32 0.66 2 1 C1.071875 2.299375 1.071875 2.299375 0.125 3.625 C-1.84654784 6.75628186 -2.98966991 9.46384469 -4 13 C-5.65 12.67 -7.3 12.34 -9 12 C-9.33 13.32 -9.66 14.64 -10 16 C-11.32 15.34 -12.64 14.68 -14 14 C-13.50628906 13.66226563 -13.01257813 13.32453125 -12.50390625 12.9765625 C-11.86324219 12.53054687 -11.22257813 12.08453125 -10.5625 11.625 C-9.92441406 11.18414062 -9.28632813 10.74328125 -8.62890625 10.2890625 C-6.86259072 9.07839147 -6.86259072 9.07839147 -6 7 C-5.34 7 -4.68 7 -4 7 C-3.71125 6.401875 -3.4225 5.80375 -3.125 5.1875 C-2 3 -2 3 0 0 Z " fill="#4AAE10" transform="translate(161,127)"/>
<path d="M0 0 C7.8226087 -0.30086957 7.8226087 -0.30086957 11 2 C13.25 4.625 13.25 4.625 15 7 C14.01 8.485 14.01 8.485 13 10 C11.2925002 8.71937515 9.62626404 7.38232443 8 6 C8 5.34 8 4.68 8 4 C7.05125 3.71125 6.1025 3.4225 5.125 3.125 C2 2 2 2 0 0 Z " fill="#48B014" transform="translate(96,60)"/>
<path d="M0 0 C0.33 0 0.66 0 1 0 C1.33 5.94 1.66 11.88 2 18 C1.34 18 0.68 18 0 18 C0.185625 18.61875 0.37125 19.2375 0.5625 19.875 C1 22 1 22 0 24 C-0.66 24 -1.32 24 -2 24 C-2 25.32 -2 26.64 -2 28 C-2.99 27.67 -3.98 27.34 -5 27 C-5 26.34 -5 25.68 -5 25 C-4.34 25 -3.68 25 -3 25 C-0.78227509 16.72049367 -0.39728885 8.52080037 0 0 Z " fill="#4AB10A" transform="translate(191,102)"/>
<path d="M0 0 C0.66 0.33 1.32 0.66 2 1 C1.73672346 7.45027515 -0.50664023 10.47915791 -5 15 C-5.33 14.34 -5.66 13.68 -6 13 C-4.5625 10.375 -4.5625 10.375 -3 8 C-3.66 7.67 -4.32 7.34 -5 7 C-4.01 6.67 -3.02 6.34 -2 6 C-0.77479736 2.99152582 -0.77479736 2.99152582 0 0 Z " fill="#4AB50A" transform="translate(175,122)"/>
<path d="M0 0 C0.33 0 0.66 0 1 0 C1.04898437 1.20398438 1.09796875 2.40796875 1.1484375 3.6484375 C1.22346343 5.22398198 1.29901133 6.79950166 1.375 8.375 C1.4059375 9.1690625 1.436875 9.963125 1.46875 10.78125 C1.51816421 15.36667375 1.51816421 15.36667375 4 19 C3.9765625 22.0390625 3.9765625 22.0390625 3.625 25.625 C3.51414062 26.81351563 3.40328125 28.00203125 3.2890625 29.2265625 C3.19367187 30.14179688 3.09828125 31.05703125 3 32 C2.67 32 2.34 32 2 32 C-0.15729044 21.27133239 -0.2071352 10.89761308 0 0 Z " fill="#43AD18" transform="translate(2,98)"/>
<path d="M0 0 C0.99 0.33 1.98 0.66 3 1 C2.01 2.485 2.01 2.485 1 4 C0.72271471 7.20254015 0.72271471 7.20254015 0.8046875 10.85546875 C0.8075174 11.51710526 0.81034729 12.17874176 0.81326294 12.86042786 C0.82444082 14.96963737 0.84954019 17.07841925 0.875 19.1875 C0.88503293 20.61913448 0.89415824 22.05077564 0.90234375 23.48242188 C0.92437205 26.98841977 0.95888515 30.49416813 1 34 C0.34 34 -0.32 34 -1 34 C-1.02465288 29.31860746 -1.04283739 24.63725241 -1.05493164 19.95581055 C-1.05997157 18.36205386 -1.0668035 16.76830181 -1.07543945 15.17456055 C-1.08751999 12.88849747 -1.09323155 10.60249533 -1.09765625 8.31640625 C-1.10281754 7.59973282 -1.10797882 6.88305939 -1.11329651 6.14466858 C-1.11349263 4.42936328 -1.06192007 2.71418734 -1 1 C-0.67 0.67 -0.34 0.34 0 0 Z " fill="#55C513" transform="translate(65,72)"/>
<path d="M0 0 C0 0.66 0 1.32 0 2 C-0.71027344 2.19335938 -1.42054687 2.38671875 -2.15234375 2.5859375 C-3.53099609 2.97652344 -3.53099609 2.97652344 -4.9375 3.375 C-6.31228516 3.75785156 -6.31228516 3.75785156 -7.71484375 4.1484375 C-10.16745087 4.76660104 -10.16745087 4.76660104 -11 7 C-13.31 7 -15.62 7 -18 7 C-16.68 6.67 -15.36 6.34 -14 6 C-14 5.34 -14 4.68 -14 4 C-12.42466914 3.13116294 -10.83935491 2.28040932 -9.25 1.4375 C-8.36828125 0.96183594 -7.4865625 0.48617187 -6.578125 -0.00390625 C-3.79298812 -1.07998186 -2.73019786 -1.06528748 0 0 Z " fill="#49B212" transform="translate(105,116)"/>
<path d="M0 0 C0 1.65 0 3.3 0 5 C-2.31 4.67 -4.62 4.34 -7 4 C-8.12516085 5.83284443 -8.12516085 5.83284443 -9 8 C-8.67 8.99 -8.34 9.98 -8 11 C-8.99 10.67 -9.98 10.34 -11 10 C-11.08226668 6.95613276 -10.97608217 4.92824652 -10 2 C-7.96875 1.26953125 -7.96875 1.26953125 -5.5 0.8125 C-4.6853125 0.65394531 -3.870625 0.49539062 -3.03125 0.33203125 C-1 0 -1 0 0 0 Z " fill="#45AA14" transform="translate(165,56)"/>
<path d="M0 0 C0.66 0 1.32 0 2 0 C2.46459606 8.86173965 2.46459606 8.86173965 0.75 13.0625 C-1.16652718 15.18436938 -2.18957887 15.70926678 -5 16 C-3.83655664 13.67311328 -2.65616883 11.39168332 -1.375 9.125 C0.09144223 5.79217675 0.25684186 3.59578599 0 0 Z " fill="#49A811" transform="translate(133,102)"/>
<path d="M0 0 C3.3 0 6.6 0 10 0 C10.33 1.32 10.66 2.64 11 4 C8.36 3.67 5.72 3.34 3 3 C2.67 4.98 2.34 6.96 2 9 C1.34 8.67 0.68 8.34 0 8 C0 5.36 0 2.72 0 0 Z " fill="#45AC0F" transform="translate(138,70)"/>
<path d="M0 0 C0.66 0.99 1.32 1.98 2 3 C1.67 3.66 1.34 4.32 1 5 C1.66 5 2.32 5 3 5 C3 5.66 3 6.32 3 7 C5.31 7 7.62 7 10 7 C10 7.66 10 8.32 10 9 C6.7 9 3.4 9 0 9 C-0.66 6.69 -1.32 4.38 -2 2 C-1.34 2 -0.68 2 0 2 C0 1.34 0 0.68 0 0 Z " fill="#46AD10" transform="translate(137,135)"/>
<path d="M0 0 C2.475 0.99 2.475 0.99 5 2 C5 6.29 5 10.58 5 15 C3.31626595 11.6325319 2.31781585 8.84984234 1.375 5.25 C1.11460938 4.26515625 0.85421875 3.2803125 0.5859375 2.265625 C0.39257812 1.51796875 0.19921875 0.7703125 0 0 Z " fill="#42B40C" transform="translate(110,70)"/>
<path d="M0 0 C1.32 0.66 2.64 1.32 4 2 C3.34 2 2.68 2 2 2 C2 2.66 2 3.32 2 4 C0 5.625 0 5.625 -2 7 C-1.67 8.65 -1.34 10.3 -1 12 C-2.32 11.67 -3.64 11.34 -5 11 C-5 9.35 -5 7.7 -5 6 C-4.34 6 -3.68 6 -3 6 C-2.67 4.68 -2.34 3.36 -2 2 C-1.34 2 -0.68 2 0 2 C0 1.34 0 0.68 0 0 Z " fill="#4CAB16" transform="translate(158,143)"/>
<path d="M0 0 C0.66 0.33 1.32 0.66 2 1 C-1.96 4.3 -5.92 7.6 -10 11 C-10.66 10.67 -11.32 10.34 -12 10 C-11.34 8.68 -10.68 7.36 -10 6 C-9.01 6 -8.02 6 -7 6 C-6.67 5.01 -6.34 4.02 -6 3 C-3.0625 1.25 -3.0625 1.25 0 0 Z " fill="#50AF18" transform="translate(179,183)"/>
<path d="M0 0 C0.45375 0.474375 0.9075 0.94875 1.375 1.4375 C2.93258204 3.09027808 2.93258204 3.09027808 5 4 C4.67 5.65 4.34 7.3 4 9 C3.34 8.67 2.68 8.34 2 8 C2 7.34 2 6.68 2 6 C1.38125 5.896875 0.7625 5.79375 0.125 5.6875 C-2 5 -2 5 -4 2 C-3.01 2 -2.02 2 -1 2 C-0.67 1.34 -0.34 0.68 0 0 Z " fill="#47B20F" transform="translate(153,72)"/>
<path d="M0 0 C0.33 0.66 0.66 1.32 1 2 C-4.83799592 3.69832609 -9.93107371 4.25287193 -16 4 C-15.67 3.34 -15.34 2.68 -15 2 C-12.45975996 1.52425562 -9.99948536 1.15992453 -7.4375 0.875 C-6.72658203 0.78863281 -6.01566406 0.70226562 -5.28320312 0.61328125 C-3.52310688 0.40065217 -1.76165836 0.19927303 0 0 Z " fill="#4CBC0E" transform="translate(91,102)"/>
<path d="M0 0 C1.65 0.33 3.3 0.66 5 1 C-0.86516854 5.88764045 -0.86516854 5.88764045 -4 7 C-6.25 6.625 -6.25 6.625 -8 6 C-7.01 6 -6.02 6 -5 6 C-4.67 4.68 -4.34 3.36 -4 2 C-2.35 2.33 -0.7 2.66 1 3 C0.67 2.01 0.34 1.02 0 0 Z " fill="#4AB915" transform="translate(159,195)"/>
<path d="M0 0 C3.29656322 1.64828161 3.75828609 4.66994907 5 8 C5 9.32 5 10.64 5 12 C4.34 12 3.68 12 3 12 C2.30062798 10.5682384 1.61587282 9.12932968 0.9375 7.6875 C0.55464844 6.88699219 0.17179688 6.08648437 -0.22265625 5.26171875 C-1 3 -1 3 0 0 Z " fill="#3AC808" transform="translate(8,139)"/>
<path d="M0 0 C2.97 0.99 5.94 1.98 9 3 C9 3.66 9 4.32 9 5 C9.66 5.33 10.32 5.66 11 6 C10.67 6.99 10.34 7.98 10 9 C8.70391053 8.06862408 7.41328368 7.1296434 6.125 6.1875 C5.40570313 5.66542969 4.68640625 5.14335937 3.9453125 4.60546875 C2 3 2 3 0 0 Z " fill="#4DB518" transform="translate(37,185)"/>
<path d="M0 0 C0.33 0.66 0.66 1.32 1 2 C3.8159849 2.46898963 3.8159849 2.46898963 7.0625 2.625 C8.71958984 2.73714844 8.71958984 2.73714844 10.41015625 2.8515625 C11.26480469 2.90054688 12.11945313 2.94953125 13 3 C13 3.99 13 4.98 13 6 C11.35 6 9.7 6 8 6 C8 5.34 8 4.68 8 4 C7.05125 4.020625 6.1025 4.04125 5.125 4.0625 C2 4 2 4 0 3 C0 2.01 0 1.02 0 0 Z " fill="#49C40B" transform="translate(88,54)"/>
<path d="M0 0 C3.2626876 3.08632611 6.02235218 5.93483504 8 10 C7.67 10.66 7.34 11.32 7 12 C3.681404 9.85897033 2.93163941 8.72655765 2 5 C0.02329393 3.24577228 0.02329393 3.24577228 -2 2 C-1.34 2 -0.68 2 0 2 C0 1.34 0 0.68 0 0 Z " fill="#49BB10" transform="translate(191,44)"/>
<path d="M0 0 C0.99 0.33 1.98 0.66 3 1 C2.88541307 2.43836751 2.75790884 3.87570966 2.625 5.3125 C2.55539063 6.11300781 2.48578125 6.91351563 2.4140625 7.73828125 C2 10 2 10 0 13 C0 8.71 0 4.42 0 0 Z " fill="#4AC30D" transform="translate(193,100)"/>
<path d="M0 0 C0.66 0 1.32 0 2 0 C3.78409802 3.06246747 4.22880021 5.22079273 4.125 8.75 C4.10695313 9.54921875 4.08890625 10.3484375 4.0703125 11.171875 C4.03550781 12.07679687 4.03550781 12.07679687 4 13 C3.34 13 2.68 13 2 13 C1.34 8.71 0.68 4.42 0 0 Z " fill="#36AE0B" transform="translate(94,80)"/>
<path d="M0 0 C0.33 1.32 0.66 2.64 1 4 C0.01 4.495 0.01 4.495 -1 5 C-1.433125 6.2065625 -1.433125 6.2065625 -1.875 7.4375 C-3.20000313 10.45556268 -4.08477729 10.73122898 -7 12 C-6.21331482 10.37258256 -5.4204759 8.74813869 -4.625 7.125 C-4.18414062 6.22007812 -3.74328125 5.31515625 -3.2890625 4.3828125 C-2 2 -2 2 0 0 Z " fill="#45B70C" transform="translate(182,135)"/>
<path d="M0 0 C2.7933465 5.39365686 3.11908784 9.92652016 3 16 C0.3668962 12.05034431 -0.12274339 9.45124115 -0.0625 4.8125 C-0.05347656 3.91144531 -0.04445312 3.01039062 -0.03515625 2.08203125 C-0.02355469 1.39496094 -0.01195312 0.70789063 0 0 Z " fill="#45B60D" transform="translate(209,81)"/>
<path d="M0 0 C5.94 0 11.88 0 18 0 C18 0.33 18 0.66 18 1 C17.03578125 1.04898438 16.0715625 1.09796875 15.078125 1.1484375 C13.81484375 1.22320312 12.5515625 1.29796875 11.25 1.375 C9.37054688 1.47941406 9.37054688 1.47941406 7.453125 1.5859375 C4.39001879 1.95323304 2.58025734 2.39711286 0 4 C0 2.68 0 1.36 0 0 Z " fill="#4DC619" transform="translate(65,123)"/>
<path d="M0 0 C0.66 0 1.32 0 2 0 C3.98362069 2.91708924 3.9876191 4.12380904 3.625 7.75 C3.41875 8.8225 3.2125 9.895 3 11 C2.34 11 1.68 11 1 11 C0.67 7.37 0.34 3.74 0 0 Z " fill="#48B109" transform="translate(144,101)"/>
<path d="M0 0 C0.33 0 0.66 0 1 0 C1 5.61 1 11.22 1 17 C0.01 17 -0.98 17 -2 17 C-1.76990234 16.21882813 -1.76990234 16.21882813 -1.53515625 15.421875 C-0.86017489 12.36721485 -0.65588882 9.36984029 -0.4375 6.25 C-0.35371094 5.07953125 -0.26992187 3.9090625 -0.18359375 2.703125 C-0.12300781 1.81109375 -0.06242188 0.9190625 0 0 Z " fill="#26D206" transform="translate(144,102)"/>
<path d="M0 0 C0.66 0.33 1.32 0.66 2 1 C0.02 3.97 -1.96 6.94 -4 10 C-4.33 9.34 -4.66 8.68 -5 8 C-2.51612903 1.25806452 -2.51612903 1.25806452 0 0 Z " fill="#49BC0D" transform="translate(197,160)"/>
<path d="M0 0 C0 0.99 0 1.98 0 3 C0.31421071 5.00309329 0.6451046 7.00371336 1 9 C-0.32 8.67 -1.64 8.34 -3 8 C-3 5.69 -3 3.38 -3 1 C-2.01 0.67 -1.02 0.34 0 0 Z " fill="#4CB213" transform="translate(127,118)"/>
<path d="M0 0 C1.65 0 3.3 0 5 0 C5.33 0.99 5.66 1.98 6 3 C5.071875 3.1546875 5.071875 3.1546875 4.125 3.3125 C1.63473516 3.87525373 1.63473516 3.87525373 0 7 C-0.66 6.67 -1.32 6.34 -2 6 C-1.34 5.01 -0.68 4.02 0 3 C0 2.01 0 1.02 0 0 Z " fill="#45C20E" transform="translate(162,125)"/>
<path d="M0 0 C2 2 2 2 3 4.5625 C3.74870114 7.14841441 3.74870114 7.14841441 6 8 C3 9 3 9 0 8 C0 5.36 0 2.72 0 0 Z " fill="#42B706" transform="translate(115,85)"/>
<path d="M0 0 C1.32 0.66 2.64 1.32 4 2 C4 3.32 4 4.64 4 6 C2.35 5.67 0.7 5.34 -1 5 C-0.67 3.35 -0.34 1.7 0 0 Z " fill="#3FC903" transform="translate(163,75)"/>
<path d="M0 0 C1.9375 0.8125 1.9375 0.8125 4 2 C4.33 2.99 4.66 3.98 5 5 C3.0625 5.5625 3.0625 5.5625 1 6 C0 5 0 5 -0.0625 2.4375 C-0.041875 1.633125 -0.02125 0.82875 0 0 Z " fill="#49BC0D" transform="translate(140,118)"/>
<path d="M0 0 C0.99 0 1.98 0 3 0 C3 0.66 3 1.32 3 2 C3.639375 2.28875 4.27875 2.5775 4.9375 2.875 C7 4 7 4 8 6 C5.69 5.34 3.38 4.68 1 4 C0.67 2.68 0.34 1.36 0 0 Z " fill="#44A90F" transform="translate(140,79)"/>
<path d="M0 0 C1.65 0 3.3 0 5 0 C5.33 0.66 5.66 1.32 6 2 C5.34 2 4.68 2 4 2 C4 2.99 4 3.98 4 5 C4.66 5 5.32 5 6 5 C5.67 5.99 5.34 6.98 5 8 C5 7.34 5 6.68 5 6 C4.34 6 3.68 6 3 6 C3 5.01 3 4.02 3 3 C2.34 3 1.68 3 1 3 C0.67 2.01 0.34 1.02 0 0 Z " fill="#44AB10" transform="translate(157,81)"/>
<path d="M0 0 C4.875 2.75 4.875 2.75 6 5 C5.01 5 4.02 5 3 5 C2.67 5.66 2.34 6.32 2 7 C0 4 0 4 0 0 Z " fill="#41BC0B" transform="translate(171,24)"/>
<path d="M0 0 C0 0.66 0 1.32 0 2 C-3.63 2 -7.26 2 -11 2 C-11 1.67 -11 1.34 -11 1 C-3.375 -1.125 -3.375 -1.125 0 0 Z " fill="#43B610" transform="translate(101,210)"/>
<path d="M0 0 C0.33 1.32 0.66 2.64 1 4 C1.66 4 2.32 4 3 4 C3 4.66 3 5.32 3 6 C2.34 6 1.68 6 1 6 C1 6.99 1 7.98 1 9 C0.01 8.67 -0.98 8.34 -2 8 C-1.33333333 5.33333333 -0.66666667 2.66666667 0 0 Z " fill="#48CA0B" transform="translate(43,152)"/>
<path d="M0 0 C1.65 0.33 3.3 0.66 5 1 C4.01 2.485 4.01 2.485 3 4 C0.69 3.67 -1.62 3.34 -4 3 C-2.68 2.67 -1.36 2.34 0 2 C0 1.34 0 0.68 0 0 Z " fill="#47BC14" transform="translate(82,71)"/>
<path d="M0 0 C0.66 0.66 1.32 1.32 2 2 C1.67 2.66 1.34 3.32 1 4 C0.34 4 -0.32 4 -1 4 C-1 5.32 -1 6.64 -1 8 C-1.99 7.67 -2.98 7.34 -4 7 C-4 6.34 -4 5.68 -4 5 C-3.34 5 -2.68 5 -2 5 C-1.34 3.35 -0.68 1.7 0 0 Z " fill="#4FBA12" transform="translate(190,122)"/>
<path d="M0 0 C1.32 0.33 2.64 0.66 4 1 C4 1.66 4 2.32 4 3 C4.66 3 5.32 3 6 3 C6 4.65 6 6.3 6 8 C5.67 7.01 5.34 6.02 5 5 C4.01 4.67 3.02 4.34 2 4 C0.8125 1.9375 0.8125 1.9375 0 0 Z " fill="#49A513" transform="translate(138,92)"/>
</svg>
